<svg width="24" height="24" viewBox="0 0 24 24" fill="none" xmlns="http://www.w3.org/2000/svg">
<path d="M21.0401 13.28L20.1201 12.38L12.3701 20.12L13.3001 21.05C14.0801 21.83 14.8901 22.22 15.6901 22.22C16.4901 22.22 17.3001 21.83 18.0801 21.05L21.0401 18.09C22.6301 16.49 22.6301 14.88 21.0401 13.28Z" fill="#DCF5FF"/>
<path d="M10.69 2.93C9.12001 1.36 7.47001 1.36 5.90001 2.93L2.93001 5.89C1.37001 7.46 1.37001 9.11 2.93001 10.68L3.85001 11.6L11.6 3.85L10.69 2.93Z" fill="#DCF5FF"/>
<path d="M21.8101 3.94003C20.5001 7.21003 17.5101 11.48 14.6601 14.27C14.2501 11.69 12.1901 9.67003 9.59009 9.31003C12.3901 6.45003 16.6901 3.42003 19.9701 2.10003C20.5501 1.88003 21.1301 2.05003 21.4901 2.41003C21.8701 2.79003 22.0501 3.36003 21.8101 3.94003Z" fill="#DCF5FF"/>
<path d="M13.7801 15.09C13.5801 15.26 13.3801 15.43 13.1801 15.59L11.3901 17.02C11.3901 16.99 11.3801 16.95 11.3801 16.91C11.2401 15.84 10.7401 14.85 9.93012 14.04C9.11012 13.22 8.09012 12.72 6.97012 12.58C6.94012 12.58 6.90012 12.57 6.87012 12.57L8.32012 10.74C8.46012 10.56 8.61012 10.39 8.77012 10.21L9.45012 10.3C11.6001 10.6 13.3301 12.29 13.6701 14.43L13.7801 15.09Z" fill="#DCF5FF"/>
<path d="M10.43 17.6199C10.43 18.7199 10.01 19.7699 9.21001 20.5599C8.60001 21.1799 7.78001 21.5999 6.78001 21.7199L4.33001 21.9899C2.99001 22.1399 1.84001 20.9899 1.99001 19.6399L2.26001 17.1799C2.50001 14.9899 4.33001 13.5899 6.27001 13.5499C6.46001 13.5399 6.67001 13.5499 6.87001 13.5699C7.72001 13.6799 8.54001 14.0699 9.23001 14.7499C9.90001 15.4199 10.28 16.2099 10.39 17.0399C10.41 17.2399 10.43 17.4299 10.43 17.6199Z" fill="#DCF5FF"/>
</svg>
