<svg width="24" height="24" viewBox="0 0 24 24" fill="none" xmlns="http://www.w3.org/2000/svg">
<path d="M21 2V14.1C21 16 20 17 18.1 17H5.89999C3.99999 17 3 16 3 14.1V2H21Z" fill="#DCF5FF"/>
<path d="M22 2.75H2C1.59 2.75 1.25 2.41 1.25 2C1.25 1.59 1.59 1.25 2 1.25H22C22.41 1.25 22.75 1.59 22.75 2C22.75 2.41 22.41 2.75 22 2.75Z" fill="#DCF5FF"/>
<path d="M16.67 22.34C16.54 22.6 16.27 22.75 16 22.75C15.89 22.75 15.77 22.72 15.67 22.67L12 20.84L8.33001 22.67C8.23001 22.72 8.11002 22.75 8.00002 22.75C7.73002 22.75 7.46001 22.6 7.33001 22.34C7.14001 21.96 7.29004 21.51 7.67004 21.33L11.25 19.54V17H12.75V19.54L16.33 21.33C16.71 21.51 16.86 21.96 16.67 22.34Z" fill="#DCF5FF"/>
</svg>
