<svg width="24" height="24" viewBox="0 0 24 24" fill="none" xmlns="http://www.w3.org/2000/svg">
<path d="M10.43 18.37C10.28 18.37 10.14 18.33 10.01 18.24C9.79997 18.1 9.67997 17.87 9.67997 17.62C9.67997 17.47 9.66997 17.31 9.64997 17.15C9.55997 16.44 9.23997 15.82 8.69997 15.28C8.15997 14.74 7.48997 14.4 6.76997 14.31C6.64997 14.3 6.47997 14.29 6.31997 14.3C6.05997 14.32 5.81997 14.21 5.66997 14C5.51997 13.8 5.47997 13.53 5.55997 13.29C5.70997 12.88 5.92997 12.51 6.18997 12.21L7.72997 10.27C10.38 6.96 15.75 2.98 19.68 1.4C20.52 1.08 21.4 1.27 22.01 1.87C22.64 2.5 22.83 3.4 22.5 4.22C20.92 8.16 16.95 13.52 13.64 16.17L11.67 17.75C11.3 18.02 11 18.19 10.7 18.31C10.62 18.35 10.52 18.37 10.43 18.37ZM7.53997 12.94C8.37997 13.16 9.12997 13.6 9.75997 14.23C10.39 14.85 10.81 15.57 11.02 16.37L12.71 15.01C15.85 12.5 19.62 7.41 21.11 3.67C21.26 3.3 21.05 3.04 20.95 2.95C20.88 2.88 20.62 2.66 20.22 2.81C16.5 4.31 11.41 8.08 8.88997 11.22L7.53997 12.94Z" fill="#8096B8"/>
<path d="M4.07999 22.75C3.32999 22.75 2.60999 22.45 2.06999 21.91C1.44999 21.29 1.14999 20.43 1.24999 19.55L1.51999 17.09C1.77999 14.65 3.77999 12.84 6.25999 12.79C6.44999 12.78 6.69999 12.79 6.92999 12.81C8.01999 12.95 8.98999 13.44 9.76999 14.22C10.54 14.99 11 15.91 11.14 16.94C11.17 17.16 11.19 17.4 11.19 17.61C11.19 18.93 10.68 20.16 9.75999 21.09C8.98999 21.85 7.99999 22.32 6.87999 22.46L4.40999 22.73C4.29999 22.74 4.18999 22.75 4.07999 22.75ZM6.44999 14.3C6.40999 14.3 6.35999 14.3 6.31999 14.3C4.80999 14.33 3.20999 15.36 3.00999 17.26L2.73999 19.72C2.68999 20.14 2.83999 20.55 3.12999 20.85C3.41999 21.14 3.82999 21.29 4.23999 21.24L6.69999 20.97C7.46999 20.87 8.15999 20.55 8.67999 20.03C9.31999 19.39 9.67999 18.53 9.67999 17.61C9.67999 17.46 9.66999 17.3 9.64999 17.14C9.55999 16.43 9.23999 15.81 8.69999 15.27C8.15999 14.73 7.48999 14.39 6.76999 14.3C6.68999 14.3 6.56999 14.3 6.44999 14.3Z" fill="#8096B8"/>
<path d="M14.24 15.22C13.83 15.22 13.49 14.88 13.49 14.47C13.49 12.27 11.7 10.49 9.51001 10.49C9.10001 10.49 8.76001 10.15 8.76001 9.74001C8.76001 9.33001 9.09001 8.99001 9.50001 8.99001C12.52 8.99001 14.98 11.45 14.98 14.47C14.99 14.89 14.65 15.22 14.24 15.22Z" fill="#8096B8"/>
<path d="M15.68 22.73C14.75 22.73 13.82 22.29 12.93 21.4C12.64 21.11 12.64 20.63 12.93 20.34C13.22 20.05 13.7 20.05 13.99 20.34C15.17 21.52 16.18 21.52 17.36 20.34L20.32 17.38C21.51 16.19 21.51 15.18 20.32 14L19.58 13.27C19.29 12.98 19.28 12.5 19.57 12.21C19.86 11.91 20.34 11.91 20.63 12.2L21.37 12.93C23.15 14.71 23.15 16.66 21.37 18.44L18.41 21.4C17.54 22.28 16.61 22.73 15.68 22.73Z" fill="#8096B8"/>
<path d="M3.11001 11.26C2.92001 11.26 2.72001 11.19 2.58001 11.04C0.82001 9.26999 0.82001 7.30999 2.58001 5.53999L5.54001 2.57999C7.30001 0.819994 9.28001 0.819994 11.04 2.57999L11.78 3.31999C12.07 3.60999 12.07 4.08999 11.78 4.37999C11.49 4.66999 11.01 4.66999 10.72 4.37999L9.97001 3.63999C8.79001 2.45999 7.77001 2.45999 6.60001 3.63999L3.64001 6.59999C2.46001 7.78999 2.46001 8.79999 3.64001 9.98999C3.93001 10.28 3.93001 10.76 3.64001 11.05C3.49001 11.19 3.30001 11.26 3.11001 11.26Z" fill="#8096B8"/>
<path d="M7.54999 8.29999C7.35999 8.29999 7.16999 8.22999 7.01999 8.07999C6.72999 7.78999 6.72999 7.30999 7.01999 7.01999L10.72 3.31999C11.01 3.02999 11.49 3.02999 11.78 3.31999C12.07 3.60999 12.07 4.08999 11.78 4.37999L8.07999 8.07999C7.92999 8.22999 7.73999 8.29999 7.54999 8.29999Z" fill="#8096B8"/>
<path d="M17.16 16.43C16.97 16.43 16.78 16.36 16.63 16.21C16.34 15.92 16.34 15.44 16.63 15.15L19.59 12.19C19.88 11.9 20.36 11.9 20.65 12.19C20.94 12.48 20.94 12.96 20.65 13.25L17.69 16.21C17.55 16.36 17.36 16.43 17.16 16.43Z" fill="#8096B8"/>
</svg>
