<svg width="24" height="24" viewBox="0 0 24 24" fill="none" xmlns="http://www.w3.org/2000/svg">
<path d="M11.97 22.75C6.04997 22.75 1.21997 17.93 1.21997 12C1.21997 6.07 6.04997 1.25 11.97 1.25C17.89 1.25 22.72 6.07 22.72 12C22.72 17.93 17.9 22.75 11.97 22.75ZM11.97 2.75C6.86997 2.75 2.71997 6.9 2.71997 12C2.71997 17.1 6.86997 21.25 11.97 21.25C17.07 21.25 21.22 17.1 21.22 12C21.22 6.9 17.07 2.75 11.97 2.75Z" fill="#8096B8"/>
<path d="M12 17.25C9.1 17.25 6.75 14.89 6.75 12C6.75 9.11 9.1 6.75 12 6.75C14.9 6.75 17.25 9.11 17.25 12C17.25 14.89 14.9 17.25 12 17.25ZM12 8.25C9.93 8.25 8.25 9.93 8.25 12C8.25 14.07 9.93 15.75 12 15.75C14.07 15.75 15.75 14.07 15.75 12C15.75 9.93 14.07 8.25 12 8.25Z" fill="#8096B8"/>
<path d="M8.44003 9.21C8.25003 9.21 8.05003 9.14 7.91003 9L4.37003 5.46C4.08003 5.17 4.08003 4.69 4.37003 4.4C4.66003 4.11 5.14003 4.11 5.43003 4.4L8.97003 7.94C9.26003 8.23 9.26003 8.7 8.97003 9C8.82003 9.14 8.63003 9.21 8.44003 9.21Z" fill="#8096B8"/>
<path d="M4.90003 19.82C4.71003 19.82 4.52003 19.75 4.37003 19.6C4.08003 19.31 4.08003 18.83 4.37003 18.54L7.91003 15C8.20003 14.71 8.68003 14.71 8.97003 15C9.26003 15.29 9.26003 15.77 8.97003 16.06L5.43003 19.6C5.29003 19.75 5.09003 19.82 4.90003 19.82Z" fill="#8096B8"/>
<path d="M19.04 19.82C18.85 19.82 18.66 19.75 18.51 19.6L14.97 16.06C14.68 15.77 14.68 15.29 14.97 15C15.26 14.71 15.74 14.71 16.03 15L19.57 18.54C19.86 18.83 19.86 19.31 19.57 19.6C19.43 19.75 19.24 19.82 19.04 19.82Z" fill="#8096B8"/>
<path d="M15.51 9.21C15.32 9.21 15.13 9.14 14.98 8.99C14.69 8.7 14.69 8.22 14.98 7.93L18.52 4.39C18.81 4.1 19.29 4.1 19.58 4.39C19.87 4.68 19.87 5.16 19.58 5.45L16.04 9C15.89 9.14 15.7 9.21 15.51 9.21Z" fill="#8096B8"/>
</svg>
