<svg width="80" height="80" viewBox="0 0 80 80" fill="none" xmlns="http://www.w3.org/2000/svg">
<path d="M40.0001 6.66641C21.6334 6.66641 6.66675 21.6331 6.66675 39.9997C6.66675 58.3664 21.6334 73.3331 40.0001 73.3331C58.3668 73.3331 73.3334 58.3664 73.3334 39.9997C73.3334 21.6331 58.3668 6.66641 40.0001 6.66641ZM53.3334 42.4997H42.5001V53.3331C42.5001 54.6997 41.3667 55.8331 40.0001 55.8331C38.6334 55.8331 37.5001 54.6997 37.5001 53.3331V42.4997H26.6667C25.3001 42.4997 24.1667 41.3664 24.1667 39.9997C24.1667 38.6331 25.3001 37.4997 26.6667 37.4997H37.5001V26.6664C37.5001 25.2997 38.6334 24.1664 40.0001 24.1664C41.3667 24.1664 42.5001 25.2997 42.5001 26.6664V37.4997H53.3334C54.7001 37.4997 55.8334 38.6331 55.8334 39.9997C55.8334 41.3664 54.7001 42.4997 53.3334 42.4997Z" fill="#8096B8"/>
</svg>
