<svg width="20" height="20" viewBox="0 0 20 20" fill="none" xmlns="http://www.w3.org/2000/svg">
<path d="M10 8.12501C9.91667 8.12501 9.84167 8.10834 9.75833 8.07501C9.525 7.98334 9.375 7.75001 9.375 7.50001V1.66667C9.375 1.32501 9.65833 1.04167 10 1.04167C10.3417 1.04167 10.625 1.32501 10.625 1.66667V5.99167L11.225 5.39167C11.4667 5.15001 11.8667 5.15001 12.1083 5.39167C12.35 5.63334 12.35 6.03334 12.1083 6.27501L10.4417 7.94167C10.325 8.05834 10.1667 8.12501 10 8.12501Z" fill="#17181A"/>
<path d="M10 8.125C9.8417 8.125 9.68337 8.06667 9.55837 7.94167L7.8917 6.275C7.65003 6.03334 7.65003 5.63334 7.8917 5.39167C8.13337 5.15 8.53337 5.15 8.77503 5.39167L10.4417 7.05834C10.6834 7.3 10.6834 7.7 10.4417 7.94167C10.3167 8.06667 10.1584 8.125 10 8.125Z" fill="#17181A"/>
<path d="M11.4666 14.7917H8.5249C7.6499 14.7917 6.86657 14.3083 6.4749 13.525L5.4999 11.575C5.46657 11.5 5.39157 11.4583 5.31657 11.4583H1.6499C1.30824 11.4583 1.0249 11.175 1.0249 10.8333C1.0249 10.4917 1.30824 10.2083 1.6499 10.2083H5.3249C5.88324 10.2083 6.38324 10.5167 6.63324 11.0167L7.60824 12.9667C7.78324 13.325 8.14157 13.5417 8.54157 13.5417H11.4832C11.8832 13.5417 12.2416 13.325 12.4166 12.9667L13.3916 11.0167C13.6416 10.5167 14.1416 10.2083 14.6999 10.2083H18.3332C18.6749 10.2083 18.9582 10.4917 18.9582 10.8333C18.9582 11.175 18.6749 11.4583 18.3332 11.4583H14.6999C14.6166 11.4583 14.5499 11.5 14.5166 11.575L13.5416 13.525C13.1249 14.3083 12.3416 14.7917 11.4666 14.7917Z" fill="#17181A"/>
<path d="M12.5001 18.9583H7.50008C2.97508 18.9583 1.04175 17.025 1.04175 12.5V9.16666C1.04175 5.25833 2.49175 3.3 5.74175 2.825C6.09175 2.775 6.40008 3.00833 6.45008 3.35C6.50008 3.69166 6.26675 4.00833 5.92508 4.05833C3.30841 4.44166 2.29175 5.875 2.29175 9.16666V12.5C2.29175 16.3417 3.65841 17.7083 7.50008 17.7083H12.5001C16.3417 17.7083 17.7084 16.3417 17.7084 12.5V9.16666C17.7084 5.875 16.6917 4.44166 14.0751 4.05833C13.7334 4.00833 13.5001 3.69166 13.5501 3.35C13.6001 3.00833 13.9167 2.775 14.2584 2.825C17.5084 3.3 18.9584 5.25833 18.9584 9.16666V12.5C18.9584 17.025 17.0251 18.9583 12.5001 18.9583Z" fill="#17181A"/>
</svg>
