<svg width="12" height="20" viewBox="0 0 12 20" fill="none" xmlns="http://www.w3.org/2000/svg">
<path d="M9.58894 12.1039L9.58894 12.1039L6.32894 15.3639C6.14752 15.5454 5.8525 15.5454 5.67108 15.3639L2.41108 12.1039C2.2075 11.9004 1.87252 11.9004 1.66894 12.1039C1.46537 12.3075 1.46537 12.6425 1.66894 12.8461L4.92894 16.1061C5.22303 16.4002 5.6116 16.55 6.00001 16.55C6.38842 16.55 6.77699 16.4002 7.07108 16.1061L10.3311 12.8461C10.5347 12.6425 10.5347 12.3075 10.3311 12.1039C10.1275 11.9004 9.79252 11.9004 9.58894 12.1039Z" fill="#8096B8" stroke="#8096B8" stroke-width="0.3"/>
<path d="M7.07108 3.89393L7.07058 3.89343C6.47739 3.30579 5.5178 3.30508 4.92894 3.89393L1.66894 7.15393C1.46537 7.35751 1.46537 7.69248 1.66894 7.89606C1.87252 8.09964 2.2075 8.09964 2.41108 7.89606L5.67108 4.63606C5.8525 4.45464 6.14752 4.45464 6.32894 4.63606L9.58894 7.89606C9.69356 8.00067 9.82737 8.04999 9.96001 8.04999C10.0971 8.04999 10.2277 7.99267 10.3274 7.89965L10.3274 7.89972L10.3311 7.89606C10.5347 7.69248 10.5347 7.35751 10.3311 7.15393L7.07108 3.89393Z" fill="#8096B8" stroke="#8096B8" stroke-width="0.3"/>
</svg>
