<svg width="20" height="20" viewBox="0 0 20 20" fill="none" xmlns="http://www.w3.org/2000/svg">
<path d="M12.5 18.9584H7.50002C2.97502 18.9584 1.04169 17.025 1.04169 12.5V7.50002C1.04169 2.97502 2.97502 1.04169 7.50002 1.04169H12.5C17.025 1.04169 18.9584 2.97502 18.9584 7.50002V12.5C18.9584 17.025 17.025 18.9584 12.5 18.9584ZM7.50002 2.29169C3.65835 2.29169 2.29169 3.65835 2.29169 7.50002V12.5C2.29169 16.3417 3.65835 17.7084 7.50002 17.7084H12.5C16.3417 17.7084 17.7084 16.3417 17.7084 12.5V7.50002C17.7084 3.65835 16.3417 2.29169 12.5 2.29169H7.50002Z" fill="#8096B8"/>
<path d="M10 12.425C9.84167 12.425 9.68334 12.3667 9.55834 12.2417L6.61667 9.3C6.37501 9.05833 6.37501 8.65833 6.61667 8.41666C6.85834 8.175 7.25834 8.175 7.50001 8.41666L10 10.9167L12.5 8.41666C12.7417 8.175 13.1417 8.175 13.3833 8.41666C13.625 8.65833 13.625 9.05833 13.3833 9.3L10.4417 12.2417C10.3167 12.3667 10.1583 12.425 10 12.425Z" fill="#8096B8"/>
</svg>
