<svg width="40" height="40" viewBox="0 0 40 40" fill="none" xmlns="http://www.w3.org/2000/svg">
<path d="M5.83331 31.25C5.14998 31.25 4.58331 30.6833 4.58331 30V11.6667C4.58331 4.31667 6.81665 2.08333 14.1666 2.08333H25.8333C33.1833 2.08333 35.4166 4.31667 35.4166 11.6667V28.3333C35.4166 28.6 35.4166 28.85 35.4 29.1167C35.35 29.8 34.7333 30.3333 34.0666 30.2833C33.3833 30.2333 32.85 29.6333 32.9 28.95C32.9166 28.75 32.9166 28.5333 32.9166 28.3333V11.6667C32.9166 5.71667 31.8 4.58333 25.8333 4.58333H14.1666C8.19998 4.58333 7.08331 5.71667 7.08331 11.6667V30C7.08331 30.6833 6.51665 31.25 5.83331 31.25Z" fill="white"/>
<path d="M28.3333 37.9167H11.6666C7.76665 37.9167 4.58331 34.7333 4.58331 30.8333V29.75C4.58331 26.4333 7.28331 23.75 10.5833 23.75H34.1666C34.85 23.75 35.4166 24.3167 35.4166 25V30.8333C35.4166 34.7333 32.2333 37.9167 28.3333 37.9167ZM10.5833 26.25C8.64998 26.25 7.08331 27.8167 7.08331 29.75V30.8333C7.08331 33.3667 9.13331 35.4167 11.6666 35.4167H28.3333C30.8666 35.4167 32.9166 33.3667 32.9166 30.8333V26.25H10.5833Z" fill="white"/>
<path d="M26.6666 12.9167H13.3333C12.65 12.9167 12.0833 12.35 12.0833 11.6667C12.0833 10.9833 12.65 10.4167 13.3333 10.4167H26.6666C27.35 10.4167 27.9166 10.9833 27.9166 11.6667C27.9166 12.35 27.35 12.9167 26.6666 12.9167Z" fill="white"/>
<path d="M21.6666 18.75H13.3333C12.65 18.75 12.0833 18.1833 12.0833 17.5C12.0833 16.8167 12.65 16.25 13.3333 16.25H21.6666C22.35 16.25 22.9166 16.8167 22.9166 17.5C22.9166 18.1833 22.35 18.75 21.6666 18.75Z" fill="white"/>
</svg>
