<svg width="40" height="40" viewBox="0 0 40 40" fill="none" xmlns="http://www.w3.org/2000/svg">
<path d="M20 36.8C19.5 36.8 19 36.6834 18.5834 36.45C15.4667 34.75 9.98337 32.95 6.55004 32.5L6.06671 32.4334C3.88337 32.1667 2.08337 30.1167 2.08337 27.9V7.7667C2.08337 6.45003 2.60004 5.25003 3.55004 4.38337C4.50004 3.5167 5.73337 3.10003 7.03337 3.2167C10.7 3.50003 16.2334 5.33337 19.3667 7.30003L19.7667 7.53337C19.8834 7.60003 20.1334 7.60003 20.2334 7.55003L20.5 7.38337C23.6334 5.4167 29.1667 3.55003 32.85 3.23337C32.8834 3.23337 33.0167 3.23337 33.05 3.23337C34.2667 3.1167 35.5167 3.55003 36.45 4.4167C37.4 5.28337 37.9167 6.48337 37.9167 7.80003V27.9167C37.9167 30.15 36.1167 32.1834 33.9167 32.45L33.3667 32.5167C29.9334 32.9667 24.4334 34.7834 21.3834 36.4667C20.9834 36.7 20.5 36.8 20 36.8ZM6.63337 5.70003C6.10004 5.70003 5.61671 5.88337 5.23337 6.23337C4.81671 6.6167 4.58337 7.1667 4.58337 7.7667V27.9C4.58337 28.8834 5.43337 29.8334 6.38337 29.9667L6.88337 30.0334C10.6334 30.5334 16.3834 32.4167 19.7167 34.2334C19.8667 34.3 20.0834 34.3167 20.1667 34.2834C23.5 32.4334 29.2834 30.5334 33.05 30.0334L33.6167 29.9667C34.5667 29.85 35.4167 28.8834 35.4167 27.9V7.78337C35.4167 7.1667 35.1834 6.63337 34.7667 6.23337C34.3334 5.85003 33.7834 5.6667 33.1667 5.70003C33.1334 5.70003 33 5.70003 32.9667 5.70003C29.7834 5.98337 24.65 7.70003 21.85 9.45003L21.5834 9.63337C20.6667 10.2 19.3667 10.2 18.4834 9.65003L18.0834 9.4167C15.2334 7.6667 10.1 5.9667 6.83337 5.70003C6.76671 5.70003 6.70004 5.70003 6.63337 5.70003Z" fill="white"/>
<path d="M20 35.4C19.3167 35.4 18.75 34.8333 18.75 34.15V9.14996C18.75 8.46663 19.3167 7.89996 20 7.89996C20.6833 7.89996 21.25 8.46663 21.25 9.14996V34.15C21.25 34.85 20.6833 35.4 20 35.4Z" fill="white"/>
<path d="M12.9166 15.4H9.16663C8.48329 15.4 7.91663 14.8333 7.91663 14.15C7.91663 13.4666 8.48329 12.9 9.16663 12.9H12.9166C13.6 12.9 14.1666 13.4666 14.1666 14.15C14.1666 14.8333 13.6 15.4 12.9166 15.4Z" fill="white"/>
<path d="M14.1666 20.4H9.16663C8.48329 20.4 7.91663 19.8333 7.91663 19.15C7.91663 18.4666 8.48329 17.9 9.16663 17.9H14.1666C14.85 17.9 15.4166 18.4666 15.4166 19.15C15.4166 19.8333 14.85 20.4 14.1666 20.4Z" fill="white"/>
</svg>
