<svg width="20" height="20" viewBox="0 0 20 20" fill="none" xmlns="http://www.w3.org/2000/svg">
<path d="M9.24996 18.9582H5.74996C2.49163 18.9582 1.04163 17.5082 1.04163 14.2498V10.7498C1.04163 7.4915 2.49163 6.0415 5.74996 6.0415H9.24996C12.5083 6.0415 13.9583 7.4915 13.9583 10.7498V14.2498C13.9583 17.5082 12.5083 18.9582 9.24996 18.9582ZM5.74996 7.2915C3.16663 7.2915 2.29163 8.1665 2.29163 10.7498V14.2498C2.29163 16.8332 3.16663 17.7082 5.74996 17.7082H9.24996C11.8333 17.7082 12.7083 16.8332 12.7083 14.2498V10.7498C12.7083 8.1665 11.8333 7.2915 9.24996 7.2915H5.74996Z" fill="#17181A"/>
<path d="M14.25 13.9582H13.3333C12.9916 13.9582 12.7083 13.6748 12.7083 13.3332V10.7498C12.7083 8.1665 11.8333 7.2915 9.24996 7.2915H6.66663C6.32496 7.2915 6.04163 7.00817 6.04163 6.6665V5.74984C6.04163 2.4915 7.49163 1.0415 10.75 1.0415H14.25C17.5083 1.0415 18.9583 2.4915 18.9583 5.74984V9.24984C18.9583 12.5082 17.5083 13.9582 14.25 13.9582ZM13.9583 12.7082H14.25C16.8333 12.7082 17.7083 11.8332 17.7083 9.24984V5.74984C17.7083 3.1665 16.8333 2.2915 14.25 2.2915H10.75C8.16663 2.2915 7.29163 3.1665 7.29163 5.74984V6.0415H9.24996C12.5083 6.0415 13.9583 7.4915 13.9583 10.7498V12.7082Z" fill="#17181A"/>
</svg>
