<svg width="20" height="20" viewBox="0 0 20 20" fill="none" xmlns="http://www.w3.org/2000/svg">
<path d="M10 8.12484C9.91667 8.12484 9.84167 8.10817 9.75833 8.07484C9.525 7.98317 9.375 7.74984 9.375 7.49984V1.6665C9.375 1.32484 9.65833 1.0415 10 1.0415C10.3417 1.0415 10.625 1.32484 10.625 1.6665V5.9915L11.225 5.3915C11.4667 5.14984 11.8667 5.14984 12.1083 5.3915C12.35 5.63317 12.35 6.03317 12.1083 6.27484L10.4417 7.9415C10.325 8.05817 10.1667 8.12484 10 8.12484Z" fill="#17181A"/>
<path d="M10 8.12503C9.8417 8.12503 9.68337 8.0667 9.55837 7.9417L7.8917 6.27503C7.65003 6.03337 7.65003 5.63337 7.8917 5.3917C8.13337 5.15003 8.53337 5.15003 8.77503 5.3917L10.4417 7.05837C10.6834 7.30003 10.6834 7.70003 10.4417 7.9417C10.3167 8.0667 10.1584 8.12503 10 8.12503Z" fill="#17181A"/>
<path d="M11.4667 14.7918H8.52502C7.65002 14.7918 6.86669 14.3085 6.47502 13.5252L5.50002 11.5752C5.46669 11.5002 5.39169 11.4585 5.31669 11.4585H1.65002C1.30836 11.4585 1.02502 11.1752 1.02502 10.8335C1.02502 10.4918 1.30836 10.2085 1.65002 10.2085H5.32502C5.88336 10.2085 6.38336 10.5168 6.63336 11.0168L7.60836 12.9668C7.78336 13.3252 8.14169 13.5418 8.54169 13.5418H11.4834C11.8834 13.5418 12.2417 13.3252 12.4167 12.9668L13.3917 11.0168C13.6417 10.5168 14.1417 10.2085 14.7 10.2085H18.3334C18.675 10.2085 18.9584 10.4918 18.9584 10.8335C18.9584 11.1752 18.675 11.4585 18.3334 11.4585H14.7C14.6167 11.4585 14.55 11.5002 14.5167 11.5752L13.5417 13.5252C13.125 14.3085 12.3417 14.7918 11.4667 14.7918Z" fill="#17181A"/>
<path d="M12.5 18.9584H7.49996C2.97496 18.9584 1.04163 17.0251 1.04163 12.5001V9.16677C1.04163 5.25844 2.49163 3.3001 5.74163 2.8251C6.09163 2.7751 6.39996 3.00844 6.44996 3.3501C6.49996 3.69177 6.26663 4.00844 5.92496 4.05844C3.30829 4.44177 2.29163 5.8751 2.29163 9.16677V12.5001C2.29163 16.3418 3.65829 17.7084 7.49996 17.7084H12.5C16.3416 17.7084 17.7083 16.3418 17.7083 12.5001V9.16677C17.7083 5.8751 16.6916 4.44177 14.075 4.05844C13.7333 4.00844 13.5 3.69177 13.55 3.3501C13.6 3.00844 13.9166 2.7751 14.2583 2.8251C17.5083 3.3001 18.9583 5.25844 18.9583 9.16677V12.5001C18.9583 17.0251 17.025 18.9584 12.5 18.9584Z" fill="#17181A"/>
</svg>
