<svg width="20" height="20" viewBox="0 0 20 20" fill="none" xmlns="http://www.w3.org/2000/svg">
<path d="M12.5 18.9582H7.49996C2.97496 18.9582 1.04163 17.0248 1.04163 12.4998V7.49984C1.04163 2.97484 2.97496 1.0415 7.49996 1.0415H9.16663C9.50829 1.0415 9.79163 1.32484 9.79163 1.6665C9.79163 2.00817 9.50829 2.2915 9.16663 2.2915H7.49996C3.65829 2.2915 2.29163 3.65817 2.29163 7.49984V12.4998C2.29163 16.3415 3.65829 17.7082 7.49996 17.7082H12.5C16.3416 17.7082 17.7083 16.3415 17.7083 12.4998V10.8332C17.7083 10.4915 17.9916 10.2082 18.3333 10.2082C18.675 10.2082 18.9583 10.4915 18.9583 10.8332V12.4998C18.9583 17.0248 17.025 18.9582 12.5 18.9582Z" fill="#17181A"/>
<path d="M7.08336 14.7415C6.57503 14.7415 6.10836 14.5581 5.76669 14.2248C5.35836 13.8165 5.18336 13.2248 5.27503 12.5998L5.63336 10.0915C5.70003 9.60814 6.01669 8.98314 6.35836 8.64147L12.925 2.0748C14.5834 0.416471 16.2667 0.416471 17.925 2.0748C18.8334 2.98314 19.2417 3.90814 19.1584 4.83314C19.0834 5.58314 18.6834 6.31647 17.925 7.06647L11.3584 13.6331C11.0167 13.9748 10.3917 14.2915 9.90836 14.3581L7.40003 14.7165C7.29169 14.7415 7.18336 14.7415 7.08336 14.7415ZM13.8084 2.95814L7.24169 9.5248C7.08336 9.68314 6.90003 10.0498 6.86669 10.2665L6.50836 12.7748C6.47503 13.0165 6.52503 13.2165 6.65003 13.3415C6.77503 13.4665 6.97503 13.5165 7.21669 13.4831L9.72503 13.1248C9.94169 13.0915 10.3167 12.9081 10.4667 12.7498L17.0334 6.18314C17.575 5.64147 17.8584 5.15814 17.9 4.70814C17.95 4.16647 17.6667 3.59147 17.0334 2.9498C15.7 1.61647 14.7834 1.99147 13.8084 2.95814Z" fill="#17181A"/>
<path d="M16.5417 8.19173C16.4833 8.19173 16.425 8.1834 16.375 8.16673C14.1833 7.55006 12.4417 5.8084 11.825 3.61673C11.7333 3.2834 11.925 2.94173 12.2583 2.84173C12.5917 2.75006 12.9333 2.94173 13.025 3.27506C13.525 5.05006 14.9333 6.4584 16.7083 6.9584C17.0417 7.05006 17.2333 7.40006 17.1417 7.7334C17.0667 8.01673 16.8167 8.19173 16.5417 8.19173Z" fill="#17181A"/>
</svg>
