<svg width="20" height="20" viewBox="0 0 20 20" fill="none" xmlns="http://www.w3.org/2000/svg">
<path d="M10 1.04166C14.9417 1.04166 18.9583 5.05833 18.9583 10C18.9583 14.9417 14.9417 18.9583 10 18.9583C5.05834 18.9583 1.04168 14.9417 1.04168 10C1.04168 5.05833 5.05834 1.04166 10 1.04166ZM10 17.7083C14.25 17.7083 17.7083 14.25 17.7083 10C17.7083 5.75 14.25 2.29166 10 2.29166C5.75001 2.29166 2.29168 5.75 2.29168 10C2.29168 14.25 5.75001 17.7083 10 17.7083Z" fill="#8096B8"/>
<path d="M10 8.54166C10.3417 8.54166 10.625 8.82499 10.625 9.16666L10.625 13.3333C10.625 13.675 10.3417 13.9583 10 13.9583C9.65833 13.9583 9.375 13.675 9.375 13.3333L9.375 9.16666C9.375 8.82499 9.65833 8.54166 10 8.54166Z" fill="#8096B8"/>
<path d="M10 5.83333C10.1083 5.83333 10.2167 5.85833 10.3167 5.9C10.4167 5.94167 10.5083 6 10.5917 6.075C10.6667 6.15834 10.725 6.24167 10.7667 6.35C10.8083 6.45 10.8333 6.55833 10.8333 6.66667C10.8333 6.775 10.8083 6.88333 10.7667 6.98333C10.725 7.08333 10.6667 7.175 10.5917 7.25833C10.5083 7.33333 10.4167 7.39167 10.3167 7.43333C10.1167 7.51667 9.88334 7.51667 9.68334 7.43333C9.58334 7.39167 9.49168 7.33333 9.40834 7.25833C9.33334 7.175 9.27501 7.08333 9.23334 6.98333C9.19168 6.88333 9.16668 6.775 9.16668 6.66667C9.16668 6.55833 9.19168 6.45 9.23334 6.35C9.27501 6.24167 9.33334 6.15834 9.40834 6.075C9.49168 6 9.58334 5.94167 9.68334 5.9C9.78334 5.85833 9.89168 5.83333 10 5.83333Z" fill="#8096B8"/>
</svg>
