<svg width="24" height="24" viewBox="0 0 24 24" fill="none" xmlns="http://www.w3.org/2000/svg">
<path d="M18.1 17.75H5.89999C3.57999 17.75 2.25 16.42 2.25 14.1V2C2.25 1.59 2.59 1.25 3 1.25H21C21.41 1.25 21.75 1.59 21.75 2V14.1C21.75 16.42 20.42 17.75 18.1 17.75ZM3.75 2.75V14.1C3.75 15.59 4.40999 16.25 5.89999 16.25H18.09C19.58 16.25 20.24 15.59 20.24 14.1V2.75H3.75Z" fill="#8096B8"/>
<path d="M22 2.75H2C1.59 2.75 1.25 2.41 1.25 2C1.25 1.59 1.59 1.25 2 1.25H22C22.41 1.25 22.75 1.59 22.75 2C22.75 2.41 22.41 2.75 22 2.75Z" fill="#8096B8"/>
<path d="M8.00027 22.75C7.72027 22.75 7.46025 22.6 7.33025 22.34C7.14025 21.97 7.29028 21.52 7.67028 21.33L11.2503 19.54V17C11.2503 16.59 11.5903 16.25 12.0003 16.25C12.4103 16.25 12.7503 16.59 12.7503 17V20C12.7503 20.28 12.5903 20.54 12.3303 20.67L8.33025 22.67C8.23025 22.72 8.11027 22.75 8.00027 22.75Z" fill="#8096B8"/>
<path d="M15.9999 22.75C15.8899 22.75 15.77 22.72 15.67 22.67L11.67 20.67C11.3 20.48 11.1499 20.03 11.3299 19.66C11.5199 19.29 11.9699 19.14 12.3399 19.32L16.3399 21.32C16.7099 21.51 16.8599 21.96 16.6799 22.33C16.5399 22.6 16.2699 22.75 15.9999 22.75Z" fill="#8096B8"/>
</svg>
