<svg width="40" height="40" viewBox="0 0 40 40" fill="none" xmlns="http://www.w3.org/2000/svg">
<path d="M16.65 37.9667C15.65 37.9667 14.7 37.4667 14.05 36.5834L12.05 33.9167C12.05 33.9333 11.9667 33.8833 11.9333 33.8833H11.3167C5.61668 33.8833 2.08333 32.3333 2.08333 24.65V17.9833C2.08333 10.9667 6.36668 9.13335 9.96668 8.81668C10.3667 8.76668 10.8333 8.75 11.3167 8.75H21.9833C28.0167 8.75 31.2167 11.95 31.2167 17.9833V24.65C31.2167 25.1333 31.2 25.6 31.1333 26.05C30.8333 29.6 29 33.8833 21.9833 33.8833H21.3167L19.25 36.5834C18.6 37.4667 17.65 37.9667 16.65 37.9667ZM11.3167 11.25C10.9333 11.25 10.5667 11.2667 10.2167 11.3C6.35 11.6333 4.58333 13.75 4.58333 17.9833V24.65C4.58333 30.3667 6.35001 31.3833 11.3167 31.3833H11.9833C12.7333 31.3833 13.5833 31.8 14.05 32.4L16.05 35.0833C16.4167 35.5833 16.8833 35.5833 17.25 35.0833L19.25 32.4167C19.7333 31.7667 20.5 31.3833 21.3167 31.3833H21.9833C26.2167 31.3833 28.3333 29.6 28.65 25.8C28.7 25.4 28.7167 25.0333 28.7167 24.65V17.9833C28.7167 13.3333 26.6333 11.25 21.9833 11.25H11.3167Z" fill="white"/>
<path d="M16.6504 23.65C15.7171 23.65 14.9837 22.9 14.9837 21.9833C14.9837 21.0667 15.7337 20.3167 16.6504 20.3167C17.5671 20.3167 18.3171 21.0667 18.3171 21.9833C18.3171 22.9 17.5837 23.65 16.6504 23.65Z" fill="white"/>
<path d="M21.9832 23.65C21.0499 23.65 20.3166 22.9 20.3166 21.9833C20.3166 21.0667 21.0666 20.3167 21.9832 20.3167C22.8999 20.3167 23.6499 21.0667 23.6499 21.9833C23.6499 22.9 22.8999 23.65 21.9832 23.65Z" fill="white"/>
<path d="M11.333 23.65C10.3997 23.65 9.66634 22.9 9.66634 21.9833C9.66634 21.0667 10.4163 20.3167 11.333 20.3167C12.2497 20.3167 12.9997 21.0667 12.9997 21.9833C12.9997 22.9 12.2497 23.65 11.333 23.65Z" fill="white"/>
<path d="M29.9002 27.15C29.5669 27.15 29.2335 27.0167 29.0002 26.7667C28.7335 26.5 28.6169 26.1167 28.6669 25.75C28.7169 25.4 28.7335 25.0333 28.7335 24.65V17.9833C28.7335 13.3333 26.6502 11.25 22.0002 11.25H11.3335C10.9502 11.25 10.5836 11.2667 10.2336 11.3C9.86691 11.35 9.48355 11.2166 9.21688 10.9666C8.95022 10.7 8.8002 10.3334 8.83353 9.96668C9.13353 6.36668 10.9835 2.08333 18.0002 2.08333H28.6669C34.7002 2.08333 37.9002 5.28335 37.9002 11.3167V17.9833C37.9002 25 33.6169 26.8333 30.0169 27.15C29.9669 27.15 29.9336 27.15 29.9002 27.15ZM11.5336 8.75H21.9836C28.0169 8.75 31.2169 11.95 31.2169 17.9833V24.4333C34.0502 23.7333 35.3836 21.65 35.3836 17.9833V11.3167C35.3836 6.66668 33.3002 4.58333 28.6502 4.58333H17.9836C14.3169 4.58333 12.2502 5.91667 11.5336 8.75Z" fill="white"/>
</svg>
