<svg width="26" height="26" viewBox="0 0 26 26" fill="none" xmlns="http://www.w3.org/2000/svg">
<path d="M4.33317 15.1667C3.13559 15.1667 2.1665 14.1976 2.1665 13C2.1665 11.8024 3.13559 10.8333 4.33317 10.8333C5.53075 10.8333 6.49984 11.8024 6.49984 13C6.49984 14.1976 5.53075 15.1667 4.33317 15.1667Z" fill="#17181A"/>
<path d="M21.6667 15.1667C20.4691 15.1667 19.5 14.1976 19.5 13C19.5 11.8024 20.4691 10.8333 21.6667 10.8333C22.8642 10.8333 23.8333 11.8024 23.8333 13C23.8333 14.1976 22.8642 15.1667 21.6667 15.1667Z" fill="#17181A"/>
<path d="M13.0002 15.1667C11.8026 15.1667 10.8335 14.1976 10.8335 13C10.8335 11.8024 11.8026 10.8333 13.0002 10.8333C14.1977 10.8333 15.1668 11.8024 15.1668 13C15.1668 14.1976 14.1977 15.1667 13.0002 15.1667Z" fill="#17181A"/>
</svg>
