<svg width="40" height="40" viewBox="0 0 40 40" fill="none" xmlns="http://www.w3.org/2000/svg">
<path d="M26.35 33.6333C25.9167 33.6333 25.4667 33.6167 24.9833 33.5667C24.1167 33.5 23.1333 33.3333 22.1167 33.0833L19.3167 32.4167C11.6333 30.6 9.11666 26.5333 10.9167 18.8667L12.55 11.8833C12.9167 10.3 13.35 9.01668 13.8833 7.95001C16.75 2.03335 22.2333 2.56668 26.1333 3.48335L28.9167 4.13335C32.8167 5.05001 35.2833 6.50001 36.6667 8.71668C38.0333 10.9333 38.25 13.7833 37.3333 17.6833L35.7 24.65C34.2667 30.75 31.2833 33.6333 26.35 33.6333ZM21.8667 5.41668C19.0833 5.41668 17.3167 6.56668 16.1333 9.03335C15.7 9.93335 15.3167 11.05 14.9833 12.45L13.35 19.4333C11.8667 25.7333 13.5833 28.4833 19.8833 29.9833L22.6833 30.65C23.5833 30.8667 24.4333 31 25.2 31.0667C29.7333 31.5167 31.9833 29.5333 33.25 24.0833L34.8833 17.1167C35.6333 13.9 35.5333 11.65 34.5333 10.0333C33.5333 8.41668 31.5667 7.31668 28.3333 6.56668L25.55 5.91668C24.1667 5.58335 22.9333 5.41668 21.8667 5.41668Z" fill="white"/>
<path d="M13.8833 37.0833C9.6 37.0833 6.86667 34.5167 5.11667 29.1L2.98334 22.5167C0.616671 15.1833 2.73334 11.05 10.0333 8.68333L12.6667 7.83333C13.5333 7.56666 14.1833 7.38333 14.7667 7.28333C15.25 7.18333 15.7167 7.36666 16 7.74999C16.2833 8.13333 16.3333 8.63333 16.1333 9.06666C15.7 9.94999 15.3167 11.0667 15 12.4667L13.3667 19.45C11.8833 25.75 13.6 28.5 19.9 30L22.7 30.6667C23.6 30.8833 24.45 31.0167 25.2167 31.0833C25.75 31.1333 26.1833 31.5 26.3333 32.0167C26.4667 32.5333 26.2667 33.0667 25.8333 33.3667C24.7333 34.1167 23.35 34.75 21.6 35.3167L18.9667 36.1833C17.05 36.7833 15.3833 37.0833 13.8833 37.0833ZM12.9667 10.3667L10.8167 11.0667C4.86667 12.9833 3.45 15.7833 5.36667 21.75L7.5 28.3333C9.43334 34.2833 12.2333 35.7167 18.1833 33.8L20.8167 32.9333C20.9167 32.9 21 32.8667 21.1 32.8333L19.3333 32.4167C11.65 30.6 9.13334 26.5333 10.9333 18.8667L12.5667 11.8833C12.6833 11.35 12.8167 10.8333 12.9667 10.3667Z" fill="white"/>
<path d="M29.15 17.5167C29.05 17.5167 28.95 17.5 28.8333 17.4833L20.75 15.4333C20.0833 15.2667 19.6833 14.5833 19.85 13.9167C20.0167 13.25 20.7 12.85 21.3667 13.0167L29.45 15.0667C30.1167 15.2333 30.5167 15.9167 30.35 16.5833C30.2167 17.1333 29.7 17.5167 29.15 17.5167Z" fill="white"/>
<path d="M24.2667 23.15C24.1667 23.15 24.0667 23.1333 23.95 23.1166L19.1 21.8833C18.4333 21.7166 18.0333 21.0333 18.2 20.3666C18.3667 19.7 19.05 19.3 19.7167 19.4666L24.5667 20.7C25.2333 20.8666 25.6333 21.55 25.4667 22.2166C25.3333 22.7833 24.8333 23.15 24.2667 23.15Z" fill="white"/>
</svg>
