<svg width="40" height="40" viewBox="0 0 40 40" fill="none" xmlns="http://www.w3.org/2000/svg">
<path d="M29.9997 13.1834C29.9497 13.1834 29.9164 13.1834 29.8664 13.1834H29.783C26.633 13.0834 24.283 10.65 24.283 7.65001C24.283 4.58334 26.783 2.10001 29.833 2.10001C32.883 2.10001 35.383 4.60001 35.383 7.65001C35.3664 10.6667 33.0164 13.1 30.0164 13.2C30.0164 13.1833 30.0164 13.1834 29.9997 13.1834ZM29.833 4.58335C28.1497 4.58335 26.783 5.95002 26.783 7.63335C26.783 9.28335 28.0664 10.6167 29.7164 10.6834C29.733 10.6667 29.8664 10.6667 30.0164 10.6834C31.633 10.6 32.883 9.26669 32.8997 7.63335C32.8997 5.95002 31.533 4.58335 29.833 4.58335Z" fill="white"/>
<path d="M30.0167 25.4667C29.3667 25.4667 28.7167 25.4167 28.0667 25.3C27.3834 25.1834 26.9334 24.5334 27.05 23.8501C27.1667 23.1667 27.8167 22.7167 28.5 22.8334C30.55 23.1834 32.7167 22.8001 34.1667 21.8334C34.95 21.3167 35.3667 20.6667 35.3667 20.0167C35.3667 19.3667 34.9334 18.7334 34.1667 18.2167C32.7167 17.25 30.5167 16.8667 28.45 17.2334C27.7667 17.3667 27.1167 16.9 27 16.2167C26.8834 15.5334 27.3334 14.8834 28.0167 14.7667C30.7334 14.2834 33.55 14.8 35.55 16.1334C37.0167 17.1167 37.8667 18.5167 37.8667 20.0167C37.8667 21.5 37.0334 22.9167 35.55 23.9167C34.0334 24.9167 32.0667 25.4667 30.0167 25.4667Z" fill="white"/>
<path d="M9.94999 13.1833C9.93332 13.1833 9.91666 13.1833 9.91666 13.1833C6.91666 13.0833 4.56665 10.65 4.54999 7.65C4.54999 4.58334 7.04999 2.08334 10.1 2.08334C13.15 2.08334 15.65 4.58335 15.65 7.63335C15.65 10.65 13.3 13.0833 10.3 13.1833L9.94999 11.9333L10.0667 13.1833C10.0333 13.1833 9.98332 13.1833 9.94999 13.1833ZM10.1167 10.6833C10.2167 10.6833 10.3 10.6833 10.4 10.7C11.8833 10.6333 13.1833 9.3 13.1833 7.65C13.1833 5.96667 11.8167 4.6 10.1333 4.6C8.44999 4.6 7.08332 5.96667 7.08332 7.65C7.08332 9.28334 8.34999 10.6 9.96665 10.7C9.98332 10.6833 10.05 10.6833 10.1167 10.6833Z" fill="white"/>
<path d="M9.93331 25.4667C7.88331 25.4667 5.91665 24.9167 4.39998 23.9167C2.93331 22.9334 2.08331 21.5167 2.08331 20.0167C2.08331 18.5334 2.93331 17.1167 4.39998 16.1334C6.39998 14.8 9.21665 14.2834 11.9333 14.7667C12.6166 14.8834 13.0666 15.5334 12.95 16.2167C12.8333 16.9 12.1833 17.3667 11.5 17.2334C9.43332 16.8667 7.24998 17.25 5.78332 18.2167C4.99998 18.7334 4.58331 19.3667 4.58331 20.0167C4.58331 20.6667 5.01665 21.3167 5.78332 21.8334C7.23332 22.8001 9.39998 23.1834 11.45 22.8334C12.1333 22.7167 12.7833 23.1834 12.9 23.8501C13.0166 24.5334 12.5666 25.1834 11.8833 25.3C11.2333 25.4167 10.5833 25.4667 9.93331 25.4667Z" fill="white"/>
<path d="M19.9997 25.6333C19.9497 25.6333 19.9164 25.6333 19.8664 25.6333H19.783C16.633 25.5333 14.283 23.1 14.283 20.1C14.283 17.0333 16.783 14.55 19.833 14.55C22.883 14.55 25.383 17.05 25.383 20.1C25.3664 23.1166 23.0164 25.55 20.0164 25.65C20.0164 25.6333 20.0164 25.6333 19.9997 25.6333ZM19.833 17.0333C18.1497 17.0333 16.783 18.4 16.783 20.0833C16.783 21.7333 18.0664 23.0666 19.7164 23.1333C19.733 23.1166 19.8664 23.1166 20.0164 23.1333C21.633 23.05 22.883 21.7166 22.8997 20.0833C22.8997 18.4166 21.533 17.0333 19.833 17.0333Z" fill="white"/>
<path d="M19.9997 37.9333C17.9997 37.9333 15.9997 37.4166 14.4497 36.3666C12.983 35.3833 12.133 33.9833 12.133 32.4833C12.133 31 12.9663 29.5666 14.4497 28.5833C17.5663 26.5166 22.4497 26.5166 25.5497 28.5833C27.0163 29.5666 27.8663 30.9666 27.8663 32.4666C27.8663 33.95 27.033 35.3833 25.5497 36.3666C23.9997 37.4 21.9997 37.9333 19.9997 37.9333ZM15.833 30.6833C15.0497 31.2 14.633 31.85 14.633 32.5C14.633 33.15 15.0663 33.7833 15.833 34.3C18.083 35.8166 21.8997 35.8166 24.1497 34.3C24.933 33.7833 25.3497 33.1333 25.3497 32.4833C25.3497 31.8333 24.9163 31.2 24.1497 30.6833C21.9163 29.1666 18.0997 29.1833 15.833 30.6833Z" fill="white"/>
</svg>
