<svg width="20" height="20" viewBox="0 0 20 20" fill="none" xmlns="http://www.w3.org/2000/svg">
<path d="M14.9998 6.59169C14.9748 6.59169 14.9581 6.59169 14.9331 6.59169H14.8915C13.3165 6.54169 12.1415 5.32502 12.1415 3.82502C12.1415 2.29169 13.3915 1.05002 14.9165 1.05002C16.4415 1.05002 17.6915 2.30002 17.6915 3.82502C17.6831 5.33335 16.5081 6.55002 15.0081 6.60002C15.0081 6.59169 15.0081 6.59169 14.9998 6.59169ZM14.9165 2.29169C14.0748 2.29169 13.3915 2.97502 13.3915 3.81669C13.3915 4.64169 14.0331 5.30836 14.8581 5.34169C14.8665 5.33336 14.9331 5.33336 15.0081 5.34169C15.8165 5.30003 16.4415 4.63336 16.4498 3.81669C16.4498 2.97502 15.7665 2.29169 14.9165 2.29169Z" fill="#17181A"/>
<path d="M15.0084 12.7333C14.6834 12.7333 14.3584 12.7083 14.0334 12.65C13.6917 12.5917 13.4667 12.2667 13.525 11.925C13.5834 11.5833 13.9084 11.3583 14.25 11.4167C15.275 11.5917 16.3584 11.4 17.0834 10.9167C17.475 10.6584 17.6834 10.3333 17.6834 10.0083C17.6834 9.68334 17.4667 9.36667 17.0834 9.10834C16.3584 8.62501 15.2584 8.43334 14.225 8.61668C13.8834 8.68334 13.5584 8.45001 13.5 8.10834C13.4417 7.76668 13.6667 7.44168 14.0084 7.38335C15.3667 7.14168 16.775 7.40001 17.775 8.06667C18.5084 8.55834 18.9334 9.25834 18.9334 10.0083C18.9334 10.75 18.5167 11.4584 17.775 11.9584C17.0167 12.4584 16.0334 12.7333 15.0084 12.7333Z" fill="#17181A"/>
<path d="M4.97503 6.59166C4.96669 6.59166 4.95836 6.59166 4.95836 6.59166C3.45836 6.54166 2.28336 5.32499 2.27502 3.82499C2.27502 2.29165 3.52503 1.04166 5.05003 1.04166C6.57503 1.04166 7.82502 2.29166 7.82502 3.81666C7.82502 5.32499 6.65003 6.54166 5.15003 6.59166L4.97503 5.96666L5.03336 6.59166C5.01669 6.59166 4.99169 6.59166 4.97503 6.59166ZM5.05836 5.34166C5.10836 5.34166 5.15003 5.34165 5.20003 5.34999C5.94169 5.31665 6.59169 4.64999 6.59169 3.82499C6.59169 2.98332 5.90836 2.29999 5.06669 2.29999C4.22503 2.29999 3.54169 2.98332 3.54169 3.82499C3.54169 4.64165 4.17502 5.29999 4.98336 5.34999C4.99169 5.34165 5.02502 5.34166 5.05836 5.34166Z" fill="#17181A"/>
<path d="M4.96663 12.7333C3.94163 12.7333 2.95829 12.4584 2.19996 11.9584C1.46663 11.4667 1.04163 10.7583 1.04163 10.0083C1.04163 9.26668 1.46663 8.55834 2.19996 8.06667C3.19996 7.40001 4.60829 7.14168 5.96663 7.38335C6.30829 7.44168 6.53329 7.76668 6.47496 8.10834C6.41663 8.45001 6.09163 8.68334 5.74996 8.61668C4.71663 8.43334 3.62496 8.62501 2.89163 9.10834C2.49996 9.36667 2.29163 9.68334 2.29163 10.0083C2.29163 10.3333 2.50829 10.6584 2.89163 10.9167C3.61663 11.4 4.69996 11.5917 5.72496 11.4167C6.06663 11.3583 6.39163 11.5917 6.44996 11.925C6.50829 12.2667 6.28329 12.5917 5.94163 12.65C5.61663 12.7083 5.29163 12.7333 4.96663 12.7333Z" fill="#17181A"/>
<path d="M9.99981 12.8167C9.97481 12.8167 9.95814 12.8167 9.93314 12.8167H9.89148C8.31648 12.7667 7.14148 11.55 7.14148 10.05C7.14148 8.51666 8.39148 7.27499 9.91648 7.27499C11.4415 7.27499 12.6915 8.525 12.6915 10.05C12.6831 11.5583 11.5081 12.775 10.0081 12.825C10.0081 12.8167 10.0081 12.8167 9.99981 12.8167ZM9.91648 8.51666C9.07481 8.51666 8.39148 9.2 8.39148 10.0417C8.39148 10.8667 9.03315 11.5333 9.85815 11.5667C9.86648 11.5583 9.93315 11.5583 10.0081 11.5667C10.8165 11.525 11.4415 10.8583 11.4498 10.0417C11.4498 9.20833 10.7665 8.51666 9.91648 8.51666Z" fill="#17181A"/>
<path d="M9.99986 18.9666C8.99986 18.9666 7.99986 18.7083 7.22486 18.1833C6.49153 17.6916 6.06653 16.9916 6.06653 16.2416C6.06653 15.5 6.48319 14.7833 7.22486 14.2916C8.78319 13.2583 11.2249 13.2583 12.7749 14.2916C13.5082 14.7833 13.9332 15.4833 13.9332 16.2333C13.9332 16.975 13.5165 17.6916 12.7749 18.1833C11.9999 18.7 10.9999 18.9666 9.99986 18.9666ZM7.91653 15.3416C7.52486 15.6 7.31653 15.925 7.31653 16.25C7.31653 16.575 7.5332 16.8916 7.91653 17.15C9.04153 17.9083 10.9499 17.9083 12.0749 17.15C12.4665 16.8916 12.6749 16.5666 12.6749 16.2416C12.6749 15.9166 12.4582 15.6 12.0749 15.3416C10.9582 14.5833 9.04986 14.5916 7.91653 15.3416Z" fill="#17181A"/>
</svg>
