<svg width="20" height="20" viewBox="0 0 20 20" fill="none" xmlns="http://www.w3.org/2000/svg">
<path d="M10.8334 9.7917C10.675 9.7917 10.5167 9.73337 10.3917 9.60837C10.15 9.3667 10.15 8.9667 10.3917 8.72503L17.225 1.8917C17.4667 1.65003 17.8667 1.65003 18.1084 1.8917C18.35 2.13337 18.35 2.53337 18.1084 2.77503L11.275 9.60837C11.15 9.73337 10.9917 9.7917 10.8334 9.7917Z" fill="#17181A"/>
<path d="M18.3334 6.2915C17.9917 6.2915 17.7084 6.00817 17.7084 5.6665V2.2915H14.3334C13.9917 2.2915 13.7084 2.00817 13.7084 1.6665C13.7084 1.32484 13.9917 1.0415 14.3334 1.0415H18.3334C18.675 1.0415 18.9584 1.32484 18.9584 1.6665V5.6665C18.9584 6.00817 18.675 6.2915 18.3334 6.2915Z" fill="#17181A"/>
<path d="M12.5 18.9582H7.49996C2.97496 18.9582 1.04163 17.0248 1.04163 12.4998V7.49984C1.04163 2.97484 2.97496 1.0415 7.49996 1.0415H9.16663C9.50829 1.0415 9.79163 1.32484 9.79163 1.6665C9.79163 2.00817 9.50829 2.2915 9.16663 2.2915H7.49996C3.65829 2.2915 2.29163 3.65817 2.29163 7.49984V12.4998C2.29163 16.3415 3.65829 17.7082 7.49996 17.7082H12.5C16.3416 17.7082 17.7083 16.3415 17.7083 12.4998V10.8332C17.7083 10.4915 17.9916 10.2082 18.3333 10.2082C18.675 10.2082 18.9583 10.4915 18.9583 10.8332V12.4998C18.9583 17.0248 17.025 18.9582 12.5 18.9582Z" fill="#17181A"/>
</svg>
