<svg width="24" height="24" viewBox="0 0 24 24" fill="none" xmlns="http://www.w3.org/2000/svg">
<path fill-rule="evenodd" clip-rule="evenodd" d="M1.25 12C1.25 17.93 6.07 22.75 12 22.75C17.93 22.75 22.75 17.93 22.75 12C22.75 6.07 17.93 1.25 12 1.25C6.07 1.25 1.25 6.07 1.25 12ZM10.05 15.36C10.19 15.5 10.38 15.58 10.58 15.58C10.78 15.58 10.97 15.5 11.11 15.36L16.78 9.68997C17.07 9.39997 17.07 8.91998 16.78 8.62998C16.49 8.33998 16.01 8.33998 15.72 8.62998L10.58 13.77L8.28 11.47C7.99 11.18 7.51 11.18 7.22 11.47C6.93 11.76 6.93 12.24 7.22 12.53L10.05 15.36Z" fill="#1AD598"/>
</svg>
