<svg width="17" height="17" viewBox="0 0 17 17" fill="none" xmlns="http://www.w3.org/2000/svg">
<path fill-rule="evenodd" clip-rule="evenodd" d="M0 8.335C0 12.9328 3.73718 16.67 8.335 16.67C12.9328 16.67 16.67 12.9328 16.67 8.335C16.67 3.73718 12.9328 0 8.335 0C3.73718 0 0 3.73718 0 8.335ZM6.14096 11.1107C5.99364 11.1107 5.84633 11.0564 5.73002 10.9401C5.50517 10.7153 5.50517 10.3431 5.73002 10.1183L7.51333 8.33497L5.73002 6.55167C5.50517 6.32682 5.50517 5.95465 5.73002 5.7298C5.95488 5.50495 6.32704 5.50495 6.55189 5.7298L8.3352 7.5131L10.1185 5.7298C10.3434 5.50495 10.7155 5.50495 10.9404 5.7298C11.1652 5.95465 11.1652 6.32682 10.9404 6.55167L9.15707 8.33497L10.9404 10.1183C11.1652 10.3431 11.1652 10.7153 10.9404 10.9401C10.8241 11.0564 10.6768 11.1107 10.5294 11.1107C10.3821 11.1107 10.2348 11.0564 10.1185 10.9401L8.3352 9.15684L6.55189 10.9401C6.44335 11.0564 6.28828 11.1107 6.14096 11.1107Z" fill="#F47690"/>
</svg>
