<svg width="20" height="20" viewBox="0 0 20 20" fill="none" xmlns="http://www.w3.org/2000/svg">
<path fill-rule="evenodd" clip-rule="evenodd" d="M2 10.335C2 14.9328 5.73718 18.67 10.335 18.67C14.9328 18.67 18.67 14.9328 18.67 10.335C18.67 5.73718 14.9328 2 10.335 2C5.73718 2 2 5.73718 2 10.335ZM8.14096 13.1107C7.99364 13.1107 7.84633 13.0564 7.73002 12.9401C7.50517 12.7153 7.50517 12.3431 7.73002 12.1183L9.51333 10.335L7.73002 8.55167C7.50517 8.32682 7.50517 7.95465 7.73002 7.7298C7.95488 7.50495 8.32704 7.50495 8.55189 7.7298L10.3352 9.5131L12.1185 7.7298C12.3434 7.50495 12.7155 7.50495 12.9404 7.7298C13.1652 7.95465 13.1652 8.32682 12.9404 8.55167L11.1571 10.335L12.9404 12.1183C13.1652 12.3431 13.1652 12.7153 12.9404 12.9401C12.8241 13.0564 12.6768 13.1107 12.5294 13.1107C12.3821 13.1107 12.2348 13.0564 12.1185 12.9401L10.3352 11.1568L8.55189 12.9401C8.44335 13.0564 8.28828 13.1107 8.14096 13.1107Z" fill="#F47690"/>
</svg>
