<svg width="40" height="40" viewBox="0 0 40 40" fill="none" xmlns="http://www.w3.org/2000/svg">
<path d="M25.0002 37.9167H15.0002C12.8002 37.9167 10.9669 37.7001 9.41692 37.2334C8.85025 37.0667 8.48358 36.5167 8.51691 35.9333C8.93358 30.95 13.9836 27.0333 20.0002 27.0333C26.0169 27.0333 31.0502 30.9333 31.4836 35.9333C31.5336 36.5333 31.1669 37.0667 30.5836 37.2334C29.0336 37.7001 27.2002 37.9167 25.0002 37.9167ZM11.2002 35.1C12.3002 35.3167 13.5502 35.4167 15.0002 35.4167H25.0002C26.4502 35.4167 27.7002 35.3167 28.8002 35.1C27.9169 31.9 24.2669 29.5333 20.0002 29.5333C15.7336 29.5333 12.0836 31.9 11.2002 35.1Z" fill="white"/>
<path fill-rule="evenodd" clip-rule="evenodd" d="M5.15778 5.15779C7.38189 2.93368 10.71 2.08334 15 2.08334H25C29.2899 2.08334 32.6181 2.93368 34.8422 5.15779C37.0663 7.38191 37.9167 10.7101 37.9167 15V25C37.9167 28.2511 37.4309 30.9402 36.2335 33.0213C35.0064 35.1539 33.1075 36.5188 30.5738 37.2361C30.2147 37.3377 29.829 37.2736 29.5221 37.0613C29.2152 36.8489 29.0192 36.5106 28.9878 36.1387C28.6927 32.6514 24.988 29.5333 20 29.5333C15.012 29.5333 11.3073 32.6514 11.0122 36.1387C10.9807 36.5106 10.7848 36.8489 10.4779 37.0613C10.171 37.2736 9.78526 37.3377 9.42618 37.2361C6.89254 36.5188 4.99355 35.1539 3.76654 33.0213C2.56913 30.9402 2.08333 28.2511 2.08333 25V15C2.08333 10.7101 2.93366 7.38191 5.15778 5.15779ZM6.92555 6.92556C5.39966 8.45145 4.58333 10.9566 4.58333 15V25C4.58333 28.0489 5.04753 30.2348 5.93345 31.7745C6.5887 32.9133 7.51407 33.7673 8.80842 34.3591C10.0491 30.0146 14.7638 27.0333 20 27.0333C25.2362 27.0333 29.9509 30.0146 31.1916 34.3591C32.4859 33.7673 33.4113 32.9133 34.0665 31.7745C34.9525 30.2348 35.4167 28.0489 35.4167 25V15C35.4167 10.9566 34.6003 8.45145 33.0744 6.92556C31.5486 5.39967 29.0434 4.58334 25 4.58334H15C10.9566 4.58334 8.45143 5.39967 6.92555 6.92556ZM20 12.9167C17.3904 12.9167 15.2833 15.0237 15.2833 17.6334C15.2833 20.2475 17.3949 22.3666 20 22.3666C22.6051 22.3666 24.7167 20.2475 24.7167 17.6334C24.7167 15.0237 22.6096 12.9167 20 12.9167ZM12.7833 17.6334C12.7833 13.643 16.0096 10.4167 20 10.4167C23.9904 10.4167 27.2167 13.643 27.2167 17.6334C27.2167 21.6192 23.9949 24.8666 20 24.8666C16.0051 24.8666 12.7833 21.6192 12.7833 17.6334Z" fill="white"/>
<path d="M19.9999 24.8666C16.0165 24.8666 12.7832 21.6167 12.7832 17.6334C12.7832 13.65 16.0165 10.4167 19.9999 10.4167C23.9832 10.4167 27.2165 13.65 27.2165 17.6334C27.2165 21.6167 23.9832 24.8666 19.9999 24.8666ZM19.9999 12.9167C17.3999 12.9167 15.2832 15.0334 15.2832 17.6334C15.2832 20.25 17.3999 22.3666 19.9999 22.3666C22.5999 22.3666 24.7165 20.25 24.7165 17.6334C24.7165 15.0334 22.5999 12.9167 19.9999 12.9167Z" fill="white"/>
</svg>
