<svg width="244" height="37" viewBox="0 0 244 37" fill="none" xmlns="http://www.w3.org/2000/svg">
<path d="M0 0L18.5 12.9825L37 0V24.0175L18.5 37L0 24.0175V0Z" fill="black"/>
<path d="M57.97 27.785C55.43 27.785 53.33 27.195 51.67 26.015C50.03 24.815 49.14 23.065 49 20.765H56.08C56.18 21.985 56.72 22.595 57.7 22.595C58.06 22.595 58.36 22.515 58.6 22.355C58.86 22.175 58.99 21.905 58.99 21.545C58.99 21.045 58.72 20.645 58.18 20.345C57.64 20.025 56.8 19.665 55.66 19.265C54.3 18.785 53.17 18.315 52.27 17.855C51.39 17.395 50.63 16.725 49.99 15.845C49.35 14.965 49.04 13.835 49.06 12.455C49.06 11.075 49.41 9.905 50.11 8.945C50.83 7.965 51.8 7.225 53.02 6.725C54.26 6.225 55.65 5.975 57.19 5.975C59.79 5.975 61.85 6.575 63.37 7.775C64.91 8.975 65.72 10.665 65.8 12.845H58.63C58.61 12.245 58.46 11.815 58.18 11.555C57.9 11.295 57.56 11.165 57.16 11.165C56.88 11.165 56.65 11.265 56.47 11.465C56.29 11.645 56.2 11.905 56.2 12.245C56.2 12.725 56.46 13.125 56.98 13.445C57.52 13.745 58.37 14.115 59.53 14.555C60.87 15.055 61.97 15.535 62.83 15.995C63.71 16.455 64.47 17.095 65.11 17.915C65.75 18.735 66.07 19.765 66.07 21.005C66.07 22.305 65.75 23.475 65.11 24.515C64.47 25.535 63.54 26.335 62.32 26.915C61.1 27.495 59.65 27.785 57.97 27.785Z" fill="black"/>
<path d="M81.25 27.575L75.07 18.365V27.575H68.41V6.335H75.07V15.275L81.16 6.335H88.69L81.37 16.505L89.17 27.575H81.25Z" fill="black"/>
<path d="M97.7165 6.335V27.575H91.0565V6.335H97.7165Z" fill="black"/>
<path d="M107.384 22.535H113.804V27.575H100.724V6.335H107.384V22.535Z" fill="black"/>
<path d="M122.56 22.535H128.98V27.575H115.9V6.335H122.56V22.535Z" fill="black"/>
<path d="M145.056 31.025L143.016 27.665C142.556 27.745 142.026 27.785 141.426 27.785C139.426 27.785 137.586 27.315 135.906 26.375C134.246 25.435 132.926 24.135 131.946 22.475C130.966 20.815 130.476 18.945 130.476 16.865C130.476 14.785 130.966 12.915 131.946 11.255C132.926 9.595 134.246 8.305 135.906 7.385C137.586 6.445 139.426 5.975 141.426 5.975C143.426 5.975 145.256 6.445 146.916 7.385C148.576 8.305 149.886 9.595 150.846 11.255C151.826 12.915 152.316 14.785 152.316 16.865C152.316 18.565 151.986 20.135 151.326 21.575C150.666 22.995 149.756 24.205 148.596 25.205L152.916 31.025H145.056ZM137.256 16.865C137.256 18.305 137.616 19.455 138.336 20.315C139.056 21.155 140.086 21.575 141.426 21.575C142.746 21.575 143.766 21.155 144.486 20.315C145.206 19.455 145.566 18.305 145.566 16.865C145.566 15.405 145.206 14.255 144.486 13.415C143.766 12.555 142.746 12.125 141.426 12.125C140.086 12.125 139.056 12.555 138.336 13.415C137.616 14.255 137.256 15.405 137.256 16.865Z" fill="black"/>
<path d="M161.229 6.335V18.305C161.229 19.285 161.439 20.065 161.859 20.645C162.299 21.205 162.999 21.485 163.959 21.485C164.919 21.485 165.629 21.205 166.089 20.645C166.549 20.065 166.779 19.285 166.779 18.305V6.335H173.409V18.305C173.409 20.325 172.989 22.055 172.149 23.495C171.309 24.915 170.159 25.985 168.699 26.705C167.239 27.425 165.609 27.785 163.809 27.785C162.009 27.785 160.409 27.425 159.009 26.705C157.629 25.985 156.549 24.915 155.769 23.495C154.989 22.075 154.599 20.345 154.599 18.305V6.335H161.229Z" fill="black"/>
<path d="M182.941 6.335V27.575H176.281V6.335H182.941Z" fill="black"/>
<path d="M207.339 6.335L200.199 27.575H191.589L184.449 6.335H191.529L195.909 20.945L200.259 6.335H207.339Z" fill="black"/>
<path d="M215.49 11.645V14.255H222.09V19.265H215.49V22.265H222.99V27.575H208.83V6.335H222.99V11.645H215.49Z" fill="black"/>
<path d="M236.18 27.575L232.19 19.955H232.16V27.575H225.5V6.335H235.4C237.12 6.335 238.59 6.645 239.81 7.265C241.03 7.865 241.94 8.695 242.54 9.755C243.16 10.795 243.47 11.975 243.47 13.295C243.47 14.715 243.07 15.975 242.27 17.075C241.49 18.175 240.36 18.965 238.88 19.445L243.5 27.575H236.18ZM232.16 15.515H234.8C235.44 15.515 235.92 15.375 236.24 15.095C236.56 14.795 236.72 14.335 236.72 13.715C236.72 13.155 236.55 12.715 236.21 12.395C235.89 12.075 235.42 11.915 234.8 11.915H232.16V15.515Z" fill="black"/>
</svg>
